<?xml version="1.0" standalone="no"?><!DOCTYPE svg PUBLIC "-//W3C//DTD SVG 1.1//EN" "http://www.w3.org/Graphics/SVG/1.1/DTD/svg11.dtd"><svg class="icon" width="200px" height="145.45px" viewBox="0 0 1408 1024" version="1.1" xmlns="http://www.w3.org/2000/svg"><path d="M289.692824 989.385792c-64.324267 0-124.218345-19.485909-168.675983-54.89281-49.960764-39.802479-79.604958-97.619906-85.471497-167.256939-8.012412-93.916545 37.137443-142.198682 73.271172-180.997446 19.987767-21.424117 37.258581-39.906311 42.605958-62.784084 9.656427-41.290745 3.357253-88.846055-2.734257-134.826571-4.655159-35.18193-9.068043-68.408347-6.126121-98.139068 4.741687-48.126389 21.129925-87.357788 48.680162-116.621263 37.656606-39.958228 94.7299-60.222881 169.593171-60.222881 127.229489 0 162.549863 60.759349 203.459888 131.123209 13.965478 24.037236 28.415509 48.853216 48.35136 75.451656 45.495964 43.592367 97.343019 46.932314 157.237096 50.80873 44.094224 2.83809 89.711326 5.780012 133.442137 26.373468 50.185734 23.587295 88.25767 66.504751 116.811623 131.209737l0.657606 1.470961 0.501857 1.522878c59.530664 178.540076 7.129835 319.804265-151.543611 408.546487-39.802479 22.237472-78.635854 32.586116-122.314749 32.586116-32.447673 0-62.939833-5.624263-95.17984-11.57733-34.264743-6.31648-69.688949-12.857931-110.131729-12.857931-7.3375 0-14.744223 0.224971-22.012501 0.657606-66.69511 3.962942-90.49007 12.650266-113.506286 21.043398-24.435261 8.912294-49.701182 18.136086-110.443227 19.33016-2.145873 0.034611-4.291746 0.051916-6.472229 0.051917z" fill="#FFFFFF" /><path d="M360.921956 148.255581c146.230846 0 143.063953 85.748384 225.766582 194.911008 129.11578 127.108351 304.783155-21.060703 401.849288 199.375809 64.030075 191.778726-19.433993 302.412312-135.605315 367.376879-38.071936 21.251063-71.99057 28.190538-105.424653 28.190539-62.732168 0-123.526128-24.417956-205.34618-24.417956-7.822052 0-15.834464 0.224971-24.071847 0.709523-140.173947 8.341215-109.906758 38.071936-222.582384 40.321641h-5.814623c-110.339394 0-208.755349-62.784084-219.657767-190.463514-11.092778-129.929135 96.218166-152.287745 115.08108-232.965639S170.839161 356.491767 176.999893 293.880737s37.691217-145.642462 183.922063-145.642461m0-69.221703c-84.796585 0-150.418759 23.916098-194.876398 71.107994-32.880309 34.95696-52.418134 81.041308-57.938564 136.955138-3.322642 33.710969 1.332518 68.858288 6.264564 106.082259 5.693485 42.934761 11.57733 87.271261 3.305336 122.401275-3.097671 13.20404-15.003804 26.477301-34.195521 47.053452s-41.238829 44.180752-58.180841 76.784174C4.845519 678.788013-3.080366 721.636247 1.072936 770.195271c6.766421 79.345376 40.806194 145.521324 98.39865 191.380702a278.617352 278.617352 0 0 0 89.988213 47.39956 331.848841 331.848841 0 0 0 100.21572 15.02111h7.199057c61.607315-1.228685 90.403543-10.037147 121.622531-21.424117 21.631782-7.891274 42.052184-15.332607 103.69411-19.035968 6.593367-0.398025 13.307872-0.588384 19.953156-0.588385 37.293192 0 71.125299 6.247259 103.832553 12.269547 32.378451 5.970372 65.86445 12.113798 101.496321 12.113798 49.164714 0 94.695289-12.113798 139.204844-36.999 78.203218-43.73081 133.545969-100.163803 164.48807-167.724185 37.258581-81.3355 38.262296-176.203843 2.993839-281.974604l-1.021021-3.063061-1.297906-2.941922c-32.015037-72.682787-75.763153-121.293728-133.753635-148.584384-49.683877-23.37963-100.821409-26.684966-145.953959-29.592278-60.119048-3.876415-99.385059-7.94319-133.528664-39.387148-17.859199-24.227596-31.32282-47.295728-44.353806-69.72356-21.995196-37.812355-42.761707-73.548059-77.874415-101.634765-39.802479-31.859289-89.278691-46.724649-155.454638-46.724649z" fill="#434E52" /><path d="M455.513412 836.786549a222.582384 222.582384 0 1 1 222.582384-222.582384 222.82466 222.82466 0 0 1-222.582384 222.582384z" fill="#FCCE0B" /><path d="M455.513412 426.232632a187.971533 187.971533 0 1 1-187.954227 187.971533A187.971533 187.971533 0 0 1 455.513412 426.232632m0-69.221702a256.604851 256.604851 0 1 0 100.146498 20.247348 255.653052 255.653052 0 0 0-100.129192-20.247348z" fill="#434E52" /><path d="M643.484945 614.22147a188.040754 188.040754 0 0 1-113.523592 172.656231c54.47748-35.303068 90.888095-99.41967 90.888095-172.656231s-36.462532-137.405079-90.974622-172.673536a188.006144 188.006144 0 0 1 113.610119 172.673536z" fill="#F4AF16" /><path d="M267.559185 614.22147a188.040754 188.040754 0 0 0 113.523592 172.656231c-54.47748-35.303068-90.888095-99.41967-90.888095-172.656231s36.462532-137.405079 90.974622-172.673536a188.006144 188.006144 0 0 0-113.610119 172.673536z" fill="#FCE15B" /><path d="M1010.636854 975.662589c-104.974712 0-193.35352-29.419223-255.618441-84.900418C683.564311 826.87054 647.222917 731.811837 647.222917 608.251098c0-120.082348 41.913741-261.311926 112.104547-377.673607C834.3984 106.030343 926.047934 34.610851 1010.636854 34.610851s176.376898 71.419491 251.482445 195.96664c70.190806 116.396292 112.104547 257.573954 112.104547 377.673607 0 123.578044-36.341394 218.619441-107.899329 282.511073-62.264921 55.533111-150.64373 84.900418-255.687663 84.900418z" fill="#FFFFFF" /><path d="M1010.636854 69.221702c152.928046 0 328.97614 298.276315 328.976141 539.029396S1192.343823 941.051738 1010.636854 941.051738s-328.803086-92.064864-328.803086-332.80064S857.864557 69.221702 1010.636854 69.221702m0-69.221702c-28.363593 0-57.31557 6.472229-86.094492 19.226328-24.919813 11.058167-49.856931 26.944548-74.153749 47.209201-42.969372 35.874147-84.796585 86.527128-120.809176 146.248151A857.691503 857.691503 0 0 0 645.492374 402.230007c-21.839447 71.471408-32.880309 140.779637-32.880308 205.934564 0 66.798943 10.383255 126.952602 30.613298 178.816963 20.074294 51.241365 49.978069 94.816427 88.846055 129.513805 36.151034 32.257313 79.847234 56.606047 129.790691 72.353984 44.994107 14.155838 95.041397 21.33759 148.82666 21.33759s103.832554-7.181752 148.826661-21.33759c49.995375-15.747937 93.674269-40.079366 129.790691-72.353984 38.885291-34.610851 68.771761-78.27244 88.846055-129.513805 20.31657-51.916277 30.613298-112.01802 30.613298-178.816963 0-65.241454-11.075472-134.549684-32.880308-205.934564a857.691503 857.691503 0 0 0-84.156285-189.511716c-36.064507-59.807551-77.874415-110.374004-120.809176-146.248151-24.227596-20.281959-49.233936-36.168339-74.153749-47.209201C1068.021645 6.472229 1039.069668 0 1010.636854 0z" fill="#434E52" /></svg>